<svg width="276" height="74" viewBox="0 0 276 74" fill="none" xmlns="http://www.w3.org/2000/svg">
<path d="M94.7 36.775C95.7033 36.775 96.6017 36.6817 97.395 36.495C98.2117 36.285 98.9117 36.005 99.495 35.655C99.6117 35.7717 99.7167 35.935 99.81 36.145C99.9267 36.355 99.985 36.5883 99.985 36.845C99.985 37.4517 99.6467 37.965 98.97 38.385C98.2933 38.7817 97.2317 38.98 95.785 38.98C95.0383 38.98 94.3033 38.945 93.58 38.875C92.8567 38.7817 92.1333 38.665 91.41 38.525V48.115C91.41 48.675 91.515 49.1183 91.725 49.445C91.9583 49.7717 92.2267 50.0167 92.53 50.18C92.8567 50.32 93.195 50.4133 93.545 50.46C93.9183 50.5067 94.245 50.53 94.525 50.53V52C94.245 52 93.895 51.9883 93.475 51.965C93.055 51.9183 92.6233 51.8717 92.18 51.825C91.7367 51.7783 91.305 51.7433 90.885 51.72C90.465 51.6733 90.115 51.65 89.835 51.65C89.555 51.65 89.205 51.6733 88.785 51.72C88.365 51.7433 87.9333 51.7783 87.49 51.825C87.0467 51.8717 86.615 51.9183 86.195 51.965C85.775 51.9883 85.425 52 85.145 52V50.53C85.4483 50.53 85.7867 50.5067 86.16 50.46C86.5333 50.4133 86.8717 50.32 87.175 50.18C87.4783 50.0167 87.735 49.7717 87.945 49.445C88.155 49.1183 88.26 48.675 88.26 48.115V34.955C88.26 34.0917 88.2367 33.38 88.19 32.82C88.1667 32.2367 88.0733 31.7933 87.91 31.49C87.7467 31.1633 87.5133 30.9417 87.21 30.825C86.9067 30.685 86.4867 30.615 85.95 30.615V29.39C86.5333 29.39 87.035 29.355 87.455 29.285C87.8983 29.215 88.295 29.11 88.645 28.97C88.995 28.83 89.31 28.6667 89.59 28.48C89.8933 28.2933 90.2083 28.095 90.535 27.885H91.41V36.67C91.9467 36.7167 92.495 36.7517 93.055 36.775C93.615 36.775 94.1633 36.775 94.7 36.775ZM88.12 25.33C87.4667 25.33 86.8367 25.435 86.23 25.645C85.6233 25.855 85.0867 26.1933 84.62 26.66C84.1533 27.1033 83.78 27.71 83.5 28.48C83.22 29.2267 83.08 30.1367 83.08 31.21C83.08 31.7933 83.115 32.3183 83.185 32.785C83.255 33.2283 83.3133 33.7067 83.36 34.22C82.2867 34.22 81.4817 33.975 80.945 33.485C80.4083 32.995 80.14 32.3767 80.14 31.63C80.14 31.0933 80.2567 30.6733 80.49 30.37C80.7467 30.0433 81.0733 29.7867 81.47 29.6C81.2133 29.46 81.0383 29.1683 80.945 28.725C80.8517 28.2817 80.805 27.9083 80.805 27.605C80.805 26.9517 80.9683 26.3567 81.295 25.82C81.6217 25.2833 82.065 24.8283 82.625 24.455C83.2083 24.0817 83.885 23.8017 84.655 23.615C85.425 23.405 86.265 23.3 87.175 23.3C88.015 23.3 88.8433 23.3817 89.66 23.545C90.4767 23.685 91.27 23.86 92.04 24.07C92.81 24.2567 93.545 24.4317 94.245 24.595C94.9683 24.735 95.6683 24.805 96.345 24.805C97.1617 24.805 97.9433 24.6533 98.69 24.35C99.46 24.0233 100.242 23.4283 101.035 22.565C101.315 22.635 101.607 22.845 101.91 23.195C102.237 23.545 102.4 23.9883 102.4 24.525C102.4 24.9917 102.225 25.4233 101.875 25.82C101.525 26.1933 100.907 26.38 100.02 26.38C100.02 26.5433 99.985 26.7417 99.915 26.975C99.845 27.185 99.7167 27.395 99.53 27.605C99.3667 27.7917 99.1333 27.955 98.83 28.095C98.55 28.235 98.1883 28.305 97.745 28.305C97.0683 28.305 96.345 28.1533 95.575 27.85C94.8283 27.5233 94.0467 27.185 93.23 26.835C92.4367 26.4617 91.6083 26.1233 90.745 25.82C89.8817 25.4933 89.0067 25.33 88.12 25.33Z" fill="#FF5722"/>
<path d="M103.467 52C103.467 51.9479 103.467 51.8177 103.467 51.6094C103.467 51.401 103.467 51.1719 103.467 50.9219C103.467 50.6615 103.467 50.4323 103.467 50.2344C103.467 50.026 103.467 49.8958 103.467 49.8438C104.165 49.8438 104.654 49.7865 104.936 49.6719C105.227 49.5573 105.404 49.375 105.467 49.125C105.529 48.875 105.561 48.5365 105.561 48.1094V34.7656C105.561 34.3073 105.389 34.0312 105.045 33.9375C104.701 33.8438 104.201 33.7917 103.545 33.7812V31.6406C103.785 31.6406 104.118 31.6406 104.545 31.6406C104.972 31.6406 105.389 31.6406 105.795 31.6406C106.201 31.6302 106.493 31.625 106.67 31.625C107.149 31.6146 107.628 31.6094 108.107 31.6094C108.587 31.599 109.087 31.5833 109.607 31.5625V48.4062C109.607 49.0104 109.758 49.401 110.061 49.5781C110.363 49.7552 110.899 49.8438 111.67 49.8438V52C111.014 52 110.357 52 109.701 52C109.045 51.9896 108.29 51.9792 107.436 51.9688C106.623 51.9688 105.91 51.974 105.295 51.9844C104.691 51.9948 104.081 52 103.467 52ZM118.998 52.3438C117.311 52.3438 116.008 51.9219 115.092 51.0781C114.186 50.2344 113.732 49.2031 113.732 47.9844C113.732 46.6094 114.305 45.5156 115.451 44.7031C116.607 43.8906 118.196 43.4844 120.217 43.4844C120.883 43.4844 121.55 43.526 122.217 43.6094C122.894 43.6927 123.55 43.8177 124.186 43.9844V42.0156C124.186 41.1719 123.899 40.5104 123.326 40.0312C122.753 39.5521 121.868 39.3125 120.67 39.3125C118.691 39.3125 117.514 40.1042 117.139 41.6875L114.936 41.4688L115.061 38.4688C115.488 38.2708 116.217 38.0521 117.248 37.8125C118.29 37.5729 119.566 37.4531 121.076 37.4531C123.618 37.4531 125.446 37.8542 126.561 38.6562C127.686 39.4479 128.248 40.7604 128.248 42.5938V48C128.248 48.625 128.279 49.0677 128.342 49.3281C128.404 49.5885 128.524 49.7448 128.701 49.7969C128.889 49.849 129.17 49.875 129.545 49.875H130.279V52C130.154 52 129.92 52 129.576 52C129.232 51.9896 128.878 51.9844 128.514 51.9844C128.16 51.9844 127.899 51.9844 127.732 51.9844C127.16 51.9948 126.644 52.0052 126.186 52.0156C125.727 52.026 125.222 52.0365 124.67 52.0469L124.357 49.9844C123.857 50.7344 123.18 51.3177 122.326 51.7344C121.482 52.1406 120.373 52.3438 118.998 52.3438ZM120.482 50.3281C121.16 50.3281 121.779 50.2031 122.342 49.9531C122.904 49.6927 123.352 49.3177 123.686 48.8281C124.019 48.3281 124.186 47.7188 124.186 47V45.4062C123.686 45.2708 123.196 45.1719 122.717 45.1094C122.248 45.0365 121.779 45 121.311 45C120.175 45 119.285 45.2396 118.639 45.7188C117.993 46.1979 117.67 46.8646 117.67 47.7188C117.67 48.5208 117.936 49.1562 118.467 49.625C118.998 50.0938 119.67 50.3281 120.482 50.3281ZM137.373 52.2031L132.467 41.4844C132.3 41.0885 132.149 40.8021 132.014 40.625C131.878 40.4479 131.722 40.3333 131.545 40.2812C131.43 40.2188 131.285 40.1875 131.107 40.1875C130.93 40.1875 130.722 40.1979 130.482 40.2188V37.875C131.149 37.875 131.785 37.8802 132.389 37.8906C133.003 37.901 133.561 37.9062 134.061 37.9062C134.675 37.9062 135.337 37.9062 136.045 37.9062C136.753 37.8958 137.55 37.8854 138.436 37.875V40.0469C137.883 40.0469 137.436 40.0833 137.092 40.1562C136.758 40.2188 136.561 40.3698 136.498 40.6094C136.529 40.7552 136.576 40.9219 136.639 41.1094C136.701 41.2865 136.79 41.4948 136.904 41.7344C137.05 42.1094 137.248 42.599 137.498 43.2031C137.748 43.8073 138.014 44.4479 138.295 45.125C138.587 45.7917 138.863 46.4219 139.123 47.0156C139.383 47.6094 139.592 48.099 139.748 48.4844C139.915 48.8594 139.998 49.0469 139.998 49.0469C140.061 48.9115 140.165 48.6667 140.311 48.3125C140.467 47.9479 140.649 47.526 140.857 47.0469C141.066 46.5573 141.279 46.0469 141.498 45.5156C141.727 44.9844 141.941 44.474 142.139 43.9844C142.347 43.4948 142.529 43.0729 142.686 42.7188C142.842 42.3542 142.946 42.1042 142.998 41.9688C143.227 41.4479 143.373 41.0052 143.436 40.6406C143.383 40.401 143.222 40.2448 142.951 40.1719C142.68 40.0885 142.16 40.0469 141.389 40.0469V37.875C142.149 37.8854 142.811 37.8958 143.373 37.9062C143.946 37.9167 144.54 37.9219 145.154 37.9219C145.633 37.9219 146.133 37.9167 146.654 37.9062C147.175 37.8958 147.706 37.8854 148.248 37.875V40.0469C147.8 40.0469 147.456 40.0781 147.217 40.1406C146.977 40.2031 146.785 40.3229 146.639 40.5C146.493 40.6771 146.357 40.9167 146.232 41.2188C146.107 41.5208 145.925 41.9323 145.686 42.4531L141.342 52.2031H137.373ZM157.311 52.4531C155.748 52.4531 154.347 52.1562 153.107 51.5625C151.878 50.9688 150.904 50.1146 150.186 49C149.467 47.875 149.107 46.526 149.107 44.9531C149.107 43.3906 149.462 42.0521 150.17 40.9375C150.889 39.8125 151.863 38.9531 153.092 38.3594C154.331 37.7552 155.738 37.4531 157.311 37.4531C158.831 37.4531 160.212 37.7448 161.451 38.3281C162.691 38.9115 163.675 39.7604 164.404 40.875C165.144 41.9896 165.514 43.349 165.514 44.9531C165.514 46.5156 165.154 47.8594 164.436 48.9844C163.717 50.099 162.738 50.9583 161.498 51.5625C160.258 52.1562 158.863 52.4531 157.311 52.4531ZM157.295 50.1719C158.545 50.1719 159.535 49.7031 160.264 48.7656C160.993 47.8177 161.357 46.526 161.357 44.8906C161.357 43.2865 160.998 42.0208 160.279 41.0938C159.561 40.1667 158.576 39.7031 157.326 39.7031C156.055 39.7031 155.061 40.1667 154.342 41.0938C153.623 42.0208 153.264 43.3021 153.264 44.9375C153.264 46.5521 153.618 47.8281 154.326 48.7656C155.045 49.7031 156.035 50.1719 157.295 50.1719ZM167.545 52V49.8438C168.305 49.8438 168.837 49.8177 169.139 49.7656C169.441 49.7135 169.618 49.599 169.67 49.4219C169.722 49.2448 169.748 48.9635 169.748 48.5781V40.8438C169.748 40.4167 169.592 40.1719 169.279 40.1094C168.977 40.0469 168.415 40.0156 167.592 40.0156V37.875C167.8 37.875 168.097 37.8802 168.482 37.8906C168.868 37.8906 169.222 37.8958 169.545 37.9062C169.868 37.9062 170.029 37.9062 170.029 37.9062C170.602 37.9062 171.186 37.8958 171.779 37.875C172.373 37.8542 172.982 37.8385 173.607 37.8281V40.7656C174.087 39.7344 174.769 38.9427 175.654 38.3906C176.55 37.8281 177.623 37.5469 178.873 37.5469C179.331 37.5469 179.816 37.5885 180.326 37.6719V41.9531C180.107 41.9323 179.852 41.9271 179.561 41.9375C179.269 41.9375 179.019 41.9427 178.811 41.9531C178.665 41.5052 178.456 41.1667 178.186 40.9375C177.915 40.7083 177.535 40.5938 177.045 40.5938C176.18 40.5938 175.462 40.9531 174.889 41.6719C174.316 42.3906 173.993 43.3438 173.92 44.5312C173.899 44.5833 173.883 44.75 173.873 45.0312C173.863 45.3021 173.852 45.6302 173.842 46.0156C173.842 46.401 173.837 46.7969 173.826 47.2031C173.826 47.599 173.826 47.9479 173.826 48.25C173.826 48.5521 173.826 48.7604 173.826 48.875C173.826 49.375 174.003 49.6615 174.357 49.7344C174.722 49.8073 175.368 49.8438 176.295 49.8438V52C175.514 52 174.753 51.9948 174.014 51.9844C173.274 51.974 172.394 51.9688 171.373 51.9688C170.54 51.9688 169.842 51.974 169.279 51.9844C168.727 51.9948 168.149 52 167.545 52ZM195.339 36.775C196.342 36.775 197.24 36.6817 198.034 36.495C198.85 36.285 199.55 36.005 200.134 35.655C200.25 35.7717 200.355 35.935 200.449 36.145C200.565 36.355 200.624 36.5883 200.624 36.845C200.624 37.4517 200.285 37.965 199.609 38.385C198.932 38.7817 197.87 38.98 196.424 38.98C195.677 38.98 194.942 38.945 194.219 38.875C193.495 38.7817 192.772 38.665 192.049 38.525V48.115C192.049 48.675 192.154 49.1183 192.364 49.445C192.597 49.7717 192.865 50.0167 193.169 50.18C193.495 50.32 193.834 50.4133 194.184 50.46C194.557 50.5067 194.884 50.53 195.164 50.53V52C194.884 52 194.534 51.9883 194.114 51.965C193.694 51.9183 193.262 51.8717 192.819 51.825C192.375 51.7783 191.944 51.7433 191.524 51.72C191.104 51.6733 190.754 51.65 190.474 51.65C190.194 51.65 189.844 51.6733 189.424 51.72C189.004 51.7433 188.572 51.7783 188.129 51.825C187.685 51.8717 187.254 51.9183 186.834 51.965C186.414 51.9883 186.064 52 185.784 52V50.53C186.087 50.53 186.425 50.5067 186.799 50.46C187.172 50.4133 187.51 50.32 187.814 50.18C188.117 50.0167 188.374 49.7717 188.584 49.445C188.794 49.1183 188.899 48.675 188.899 48.115V34.955C188.899 34.0917 188.875 33.38 188.829 32.82C188.805 32.2367 188.712 31.7933 188.549 31.49C188.385 31.1633 188.152 30.9417 187.849 30.825C187.545 30.685 187.125 30.615 186.589 30.615V29.39C187.172 29.39 187.674 29.355 188.094 29.285C188.537 29.215 188.934 29.11 189.284 28.97C189.634 28.83 189.949 28.6667 190.229 28.48C190.532 28.2933 190.847 28.095 191.174 27.885H192.049V36.67C192.585 36.7167 193.134 36.7517 193.694 36.775C194.254 36.775 194.802 36.775 195.339 36.775ZM188.759 25.33C188.105 25.33 187.475 25.435 186.869 25.645C186.262 25.855 185.725 26.1933 185.259 26.66C184.792 27.1033 184.419 27.71 184.139 28.48C183.859 29.2267 183.719 30.1367 183.719 31.21C183.719 31.7933 183.754 32.3183 183.824 32.785C183.894 33.2283 183.952 33.7067 183.999 34.22C182.925 34.22 182.12 33.975 181.584 33.485C181.047 32.995 180.779 32.3767 180.779 31.63C180.779 31.0933 180.895 30.6733 181.129 30.37C181.385 30.0433 181.712 29.7867 182.109 29.6C181.852 29.46 181.677 29.1683 181.584 28.725C181.49 28.2817 181.444 27.9083 181.444 27.605C181.444 26.9517 181.607 26.3567 181.934 25.82C182.26 25.2833 182.704 24.8283 183.264 24.455C183.847 24.0817 184.524 23.8017 185.294 23.615C186.064 23.405 186.904 23.3 187.814 23.3C188.654 23.3 189.482 23.3817 190.299 23.545C191.115 23.685 191.909 23.86 192.679 24.07C193.449 24.2567 194.184 24.4317 194.884 24.595C195.607 24.735 196.307 24.805 196.984 24.805C197.8 24.805 198.582 24.6533 199.329 24.35C200.099 24.0233 200.88 23.4283 201.674 22.565C201.954 22.635 202.245 22.845 202.549 23.195C202.875 23.545 203.039 23.9883 203.039 24.525C203.039 24.9917 202.864 25.4233 202.514 25.82C202.164 26.1933 201.545 26.38 200.659 26.38C200.659 26.5433 200.624 26.7417 200.554 26.975C200.484 27.185 200.355 27.395 200.169 27.605C200.005 27.7917 199.772 27.955 199.469 28.095C199.189 28.235 198.827 28.305 198.384 28.305C197.707 28.305 196.984 28.1533 196.214 27.85C195.467 27.5233 194.685 27.185 193.869 26.835C193.075 26.4617 192.247 26.1233 191.384 25.82C190.52 25.4933 189.645 25.33 188.759 25.33ZM206.282 52V25.984H209.994V52H206.282ZM222.439 52.256C219.879 52.256 217.906 51.4453 216.519 49.824C215.132 48.2027 214.439 45.952 214.439 43.072C214.439 41.344 214.743 39.7973 215.351 38.432C215.97 37.0667 216.876 35.984 218.071 35.184C219.276 34.384 220.754 33.9733 222.503 33.952C223.399 33.9307 224.242 34.0587 225.031 34.336C225.82 34.6133 226.519 35.0347 227.127 35.6C227.735 36.1547 228.215 36.8587 228.567 37.712C228.93 38.5653 229.127 39.5627 229.159 40.704C229.159 41.376 229.154 41.9787 229.143 42.512C229.132 43.0347 229.084 43.4987 228.999 43.904H216.583L216.903 41.568H225.703C225.756 40.7147 225.703 39.9093 225.543 39.152C225.394 38.384 225.063 37.7653 224.551 37.296C224.05 36.816 223.303 36.576 222.311 36.576C221.479 36.576 220.732 36.8107 220.071 37.28C219.41 37.7387 218.898 38.5173 218.535 39.616C218.172 40.7147 218.023 42.2187 218.087 44.128C218.151 45.472 218.423 46.5333 218.903 47.312C219.383 48.0907 220.012 48.6453 220.791 48.976C221.57 49.3067 222.439 49.472 223.399 49.472C223.804 49.472 224.3 49.4293 224.887 49.344C225.474 49.248 226.039 49.1307 226.583 48.992C227.138 48.8427 227.559 48.6827 227.847 48.512L228.551 50.624C228.156 50.944 227.618 51.2267 226.935 51.472C226.263 51.7173 225.532 51.9093 224.743 52.048C223.954 52.1867 223.186 52.256 222.439 52.256ZM240.283 52.256C237.723 52.256 235.75 51.4453 234.363 49.824C232.976 48.2027 232.283 45.952 232.283 43.072C232.283 41.344 232.587 39.7973 233.195 38.432C233.814 37.0667 234.72 35.984 235.915 35.184C237.12 34.384 238.598 33.9733 240.347 33.952C241.243 33.9307 242.086 34.0587 242.875 34.336C243.664 34.6133 244.363 35.0347 244.971 35.6C245.579 36.1547 246.059 36.8587 246.411 37.712C246.774 38.5653 246.971 39.5627 247.003 40.704C247.003 41.376 246.998 41.9787 246.987 42.512C246.976 43.0347 246.928 43.4987 246.843 43.904H234.427L234.747 41.568H243.547C243.6 40.7147 243.547 39.9093 243.387 39.152C243.238 38.384 242.907 37.7653 242.395 37.296C241.894 36.816 241.147 36.576 240.155 36.576C239.323 36.576 238.576 36.8107 237.915 37.28C237.254 37.7387 236.742 38.5173 236.379 39.616C236.016 40.7147 235.867 42.2187 235.931 44.128C235.995 45.472 236.267 46.5333 236.747 47.312C237.227 48.0907 237.856 48.6453 238.635 48.976C239.414 49.3067 240.283 49.472 241.243 49.472C241.648 49.472 242.144 49.4293 242.731 49.344C243.318 49.248 243.883 49.1307 244.427 48.992C244.982 48.8427 245.403 48.6827 245.691 48.512L246.395 50.624C246 50.944 245.462 51.2267 244.779 51.472C244.107 51.7173 243.376 51.9093 242.587 52.048C241.798 52.1867 241.03 52.256 240.283 52.256ZM256.271 52.256C255.428 52.256 254.687 52.1227 254.047 51.856C253.407 51.5893 252.905 51.12 252.543 50.448C252.191 49.7653 252.015 48.8 252.015 47.552V36.896H249.711V34.912C250.5 34.688 251.103 34.5013 251.519 34.352C251.935 34.192 252.239 33.856 252.431 33.344C252.516 33.1093 252.612 32.832 252.719 32.512C252.825 32.1813 252.943 31.8187 253.071 31.424C253.199 31.0187 253.337 30.5813 253.487 30.112H255.695V34.176H260.687V36.896H255.695V45.6C255.695 46.752 255.743 47.5947 255.839 48.128C255.945 48.6507 256.137 48.9867 256.415 49.136C256.703 49.2747 257.124 49.344 257.679 49.344C257.977 49.344 258.319 49.312 258.703 49.248C259.097 49.1733 259.471 49.0827 259.823 48.976C260.185 48.8693 260.463 48.7573 260.655 48.64L261.263 50.752C260.943 50.9973 260.511 51.2373 259.967 51.472C259.433 51.696 258.841 51.8827 258.191 52.032C257.551 52.1813 256.911 52.256 256.271 52.256Z" fill="#F19B9C"/>
<path d="M35.9122 8.01086C22.7744 8.01086 12.0871 21.0151 12.0871 37.0014C12.0871 52.9876 22.7744 65.9875 35.9122 65.9875C49.0501 65.9875 59.7337 52.9832 59.7337 37.0014C59.7337 21.0195 49.0465 8.01086 35.9122 8.01086ZM35.9122 63.253C24.0154 63.253 14.3371 51.4764 14.3371 37.0047C14.3371 22.5286 24.0154 10.7519 35.9122 10.7519C47.809 10.7519 57.4837 22.5286 57.4837 37.0047C57.4837 51.4807 47.8054 63.253 35.9122 63.253ZM26.0197 43.9739C26.3326 44.6284 26.1497 45.4668 25.6119 45.8475C25.4326 45.9715 25.2392 46.0357 25.0459 46.0357C24.6592 46.0357 24.283 45.7919 24.0721 45.3555C22.8627 42.8274 22.2264 39.9399 22.2264 37.0054C22.2264 27.8254 28.3645 20.361 35.9124 20.361C38.8478 20.361 41.6497 21.4775 44.0086 23.5907C44.5079 24.0399 44.6168 24.8954 44.2477 25.5028C43.8786 26.1103 43.1755 26.2429 42.6763 25.7937C40.704 24.0313 38.3662 23.0945 35.9124 23.0945C29.6055 23.0945 24.4764 29.3357 24.4764 37.0012C24.4764 39.4566 25.0108 41.8649 26.0197 43.9739ZM47.7496 28.6513C48.959 31.1794 49.5953 34.0626 49.5953 36.9971C49.5953 46.1771 43.4572 53.6503 35.9165 53.6503C32.9776 53.6503 30.1757 52.5338 27.8167 50.4206C27.3175 49.9714 27.2086 49.1159 27.5777 48.5084C27.9468 47.901 28.6499 47.7684 29.1491 48.2176C31.1214 49.98 33.4592 50.9168 35.9165 50.9168C42.2199 50.9168 47.3453 44.6756 47.3453 37.0014C47.3453 34.5502 46.811 32.1419 45.802 30.0329C45.4892 29.3784 45.672 28.54 46.2098 28.1593C46.7477 27.7786 47.4368 28.001 47.7496 28.6555V28.6513ZM70.5235 0.00350489H70.513C68.6568 0.00350489 64.5225 3.25463 63.3061 10.8133C61.8367 19.9805 61.8437 29.2548 61.8542 39.0679V40.8176C61.8648 42.041 62.6874 43.0334 63.6894 43.0334H65.6264L63.5311 68.3192C63.4046 69.8079 63.7807 71.228 64.5858 72.3103C65.3838 73.384 66.5405 74 67.7603 74C70.1755 74 72 71.6173 72 68.4561V1.76245C72 0.808521 71.3426 0.0170835 70.5235 0L70.5235 0.00350489ZM64.1042 40.2954V39.0634C64.0936 29.383 64.0866 20.2409 65.5139 11.3356C66.3084 6.39909 68.5232 3.93085 69.7501 3.08817V40.2963L64.1042 40.2954ZM67.7638 71.2659C67.1697 71.2659 66.6353 70.9836 66.2556 70.4788C65.883 69.974 65.7107 69.3067 65.7705 68.5965L67.8904 43.037H69.7536V68.4596C69.7536 69.8114 69.1313 71.2659 67.7638 71.2659ZM8.92426 22.7224C10.2883 22.2861 11.5539 21.3749 12.4996 20.1087C13.73 18.4618 14.3136 16.3957 14.1484 14.2953L13.1359 1.24392C13.0761 0.491042 12.5312 -0.0607779 11.9089 0.00766565C11.2902 0.0803867 10.8367 0.747711 10.893 1.50061L11.8562 13.9234H8.21058V1.37249C8.21058 0.615324 7.70786 0.00361351 7.08561 0.00361351C6.46336 0.00361351 5.96064 0.615324 5.96064 1.37249V13.9234H2.32203L3.331 1.50499C3.39076 0.752113 2.94078 0.0804908 2.32203 0.00777635C1.70682 -0.0649447 1.15135 0.482599 1.09159 1.23549L0.0298845 14.2869C-0.14238 16.3743 0.434172 18.4234 1.65407 20.0617C2.6103 21.3494 3.88646 22.2733 5.25398 22.7182L2.84582 68.421C2.76496 69.9268 3.17276 71.3385 3.98834 72.3993C4.78285 73.4302 5.88324 73.9991 7.08201 73.9991C8.28429 73.9991 9.37767 73.4302 10.1757 72.3993C10.9913 71.3427 11.3991 69.9268 11.3217 68.4168L8.91355 22.7183L8.92426 22.7224ZM3.33109 18.2222C3.04282 17.8329 2.72993 17.3068 2.519 16.6565H11.6664C11.4836 17.2298 11.2058 17.773 10.8367 18.265C9.89451 19.5269 8.49531 20.2798 7.09621 20.2798C5.71817 20.2798 4.27327 19.4927 3.33109 18.2222ZM8.54465 70.5306C8.17904 71.0055 7.66225 71.2664 7.09272 71.2664C6.52319 71.2664 6.00294 71.0055 5.64079 70.5306C5.25408 70.0301 5.06424 69.3457 5.10291 68.6014L7.09617 30.7559L9.08944 68.597C9.12811 69.3413 8.93476 70.0301 8.54805 70.5305L8.54465 70.5306Z" fill="#FF5722"/>
</svg>
